<svg xmlns="http://www.w3.org/2000/svg" xmlns:xlink="http://www.w3.org/1999/xlink" width="500" zoomAndPan="magnify" viewBox="0 0 375 374.999991" height="500" preserveAspectRatio="xMidYMid meet" version="1.0"><defs><clipPath id="70650c7c92"><path d="M 133.652344 147.449219 L 241.652344 147.449219 L 241.652344 166 L 133.652344 166 Z M 133.652344 147.449219 " clip-rule="nonzero"/></clipPath><clipPath id="74bcfc902d"><path d="M 133.652344 177 L 241.652344 177 L 241.652344 197 L 133.652344 197 Z M 133.652344 177 " clip-rule="nonzero"/></clipPath><clipPath id="e5a7057d56"><path d="M 133.652344 209 L 241.652344 209 L 241.652344 227.699219 L 133.652344 227.699219 Z M 133.652344 209 " clip-rule="nonzero"/></clipPath></defs><g clip-path="url(#70650c7c92)"><path fill="#231f20" d="M 232.449219 165.824219 L 143.128906 165.824219 C 138.046875 165.824219 133.933594 161.714844 133.933594 156.636719 C 133.933594 151.558594 138.046875 147.449219 143.128906 147.449219 L 232.449219 147.449219 C 237.53125 147.449219 241.644531 151.558594 241.644531 156.636719 C 241.644531 161.714844 237.53125 165.824219 232.449219 165.824219 Z M 232.449219 165.824219 " fill-opacity="1" fill-rule="nonzero"/></g><g clip-path="url(#74bcfc902d)"><path fill="#231f20" d="M 232.175781 196.289062 L 142.855469 196.289062 C 137.773438 196.289062 133.660156 192.179688 133.660156 187.101562 C 133.660156 182.023438 137.773438 177.914062 142.855469 177.914062 L 232.175781 177.914062 C 237.257812 177.914062 241.371094 182.023438 241.371094 187.101562 C 241.371094 192.179688 237.257812 196.289062 232.175781 196.289062 Z M 232.175781 196.289062 " fill-opacity="1" fill-rule="nonzero"/></g><g clip-path="url(#e5a7057d56)"><path fill="#231f20" d="M 232.175781 227.699219 L 142.855469 227.699219 C 137.773438 227.699219 133.660156 223.59375 133.660156 218.515625 C 133.660156 213.4375 137.773438 209.328125 142.855469 209.328125 L 232.175781 209.328125 C 237.257812 209.328125 241.371094 213.4375 241.371094 218.515625 C 241.371094 223.59375 237.257812 227.699219 232.175781 227.699219 Z M 232.175781 227.699219 " fill-opacity="1" fill-rule="nonzero"/></g></svg>