<svg xmlns="http://www.w3.org/2000/svg" xmlns:xlink="http://www.w3.org/1999/xlink" zoomAndPan="magnify" preserveAspectRatio="xMidYMid meet" version="1.0" viewBox="51.16 167.25 272.61 40.5"><defs><clipPath id="67a977d7dc"><path d="M 51.15625 167.25 L 70.65625 167.25 L 70.65625 207.75 L 51.15625 207.75 Z M 51.15625 167.25 " clip-rule="nonzero"/></clipPath><clipPath id="a9b1a65fe0"><path d="M 282.519531 167.25 L 323.769531 167.25 L 323.769531 207.75 L 282.519531 207.75 Z M 282.519531 167.25 " clip-rule="nonzero"/></clipPath></defs><g clip-path="url(#67a977d7dc)"><path fill="#595959" d="M 91.234375 197.371094 C 91.652344 198.476562 91.054688 199.699219 89.921875 200.027344 C 87.742188 200.683594 85.269531 201.011719 82.523438 201.011719 C 79.003906 201.011719 76.144531 199.726562 73.996094 197.222656 C 71.878906 194.746094 70.804688 191.464844 70.804688 187.53125 C 70.804688 183.59375 71.847656 180.371094 73.90625 177.957031 C 76.203125 175.300781 79.421875 173.929688 83.507812 173.929688 C 85.714844 173.929688 87.804688 174.199219 89.742188 174.765625 C 90.933594 175.09375 91.53125 176.40625 91.085938 177.539062 C 90.695312 178.523438 89.621094 179.03125 88.609375 178.761719 C 87.058594 178.3125 85.386719 178.105469 83.597656 178.105469 C 80.585938 178.105469 78.4375 179.179688 77.066406 181.386719 C 76.023438 183.027344 75.488281 185.144531 75.488281 187.648438 C 75.488281 189.945312 76.054688 192.003906 77.214844 193.703125 C 78.648438 195.851562 80.585938 196.894531 83.179688 196.894531 C 85.179688 196.894531 87 196.625 88.609375 196.117188 C 89.652344 195.789062 90.785156 196.296875 91.171875 197.339844 Z M 114.464844 177.808594 C 116.851562 180.433594 118.042969 183.710938 118.042969 187.53125 C 118.042969 191.378906 116.820312 194.628906 114.464844 197.222656 C 112.078125 199.847656 108.949219 201.160156 105.160156 201.160156 C 101.375 201.160156 98.242188 199.816406 95.855469 197.222656 C 93.46875 194.628906 92.277344 191.347656 92.277344 187.53125 C 92.277344 183.710938 93.46875 180.433594 95.855469 177.808594 C 98.242188 175.183594 101.402344 173.839844 105.160156 173.839844 C 108.917969 173.839844 112.078125 175.183594 114.464844 177.808594 Z M 113.480469 187.46875 C 113.480469 184.757812 112.707031 182.488281 111.15625 180.671875 C 109.632812 178.851562 107.664062 177.988281 105.132812 177.988281 C 102.625 177.988281 100.65625 178.851562 99.105469 180.671875 C 97.554688 182.488281 96.78125 184.785156 96.78125 187.46875 C 96.78125 190.183594 97.554688 192.449219 99.105469 194.269531 C 100.628906 196.089844 102.597656 196.953125 105.132812 196.953125 C 107.636719 196.953125 109.605469 196.089844 111.15625 194.269531 C 112.707031 192.480469 113.480469 190.183594 113.480469 187.46875 Z M 138.203125 178.136719 C 139.964844 180.3125 140.890625 183.292969 140.890625 186.964844 C 140.890625 190.871094 139.933594 194.089844 138.027344 196.476562 C 135.667969 199.398438 132 200.890625 127.171875 200.890625 C 126.097656 200.890625 124.546875 200.800781 122.488281 200.59375 C 121.117188 200.472656 120.042969 199.308594 120.042969 197.910156 L 120.042969 177.152344 C 120.042969 175.78125 121.085938 174.617188 122.457031 174.496094 C 125.203125 174.199219 127.082031 174.078125 128.214844 174.078125 C 132.628906 174.050781 135.996094 175.421875 138.203125 178.136719 Z M 136.175781 186.964844 C 136.175781 181.058594 133.492188 178.195312 128.003906 178.195312 C 127.140625 178.195312 125.796875 178.285156 124.039062 178.464844 L 124.039062 196.597656 C 125.082031 196.65625 126.304688 196.714844 127.738281 196.714844 C 130.929688 196.714844 133.164062 195.640625 134.597656 193.40625 C 135.667969 191.703125 136.175781 189.558594 136.175781 186.964844 Z M 156.367188 174.316406 L 144.976562 174.316406 C 143.453125 174.316406 142.230469 175.539062 142.230469 177.0625 L 142.230469 197.9375 C 142.230469 199.460938 143.453125 200.683594 144.976562 200.683594 L 156.367188 200.683594 C 157.5 200.683594 158.453125 199.757812 158.453125 198.59375 C 158.453125 197.429688 157.53125 196.507812 156.367188 196.507812 L 146.882812 196.507812 L 146.882812 188.871094 L 155.085938 188.871094 C 156.21875 188.871094 157.171875 187.949219 157.171875 186.785156 C 157.171875 185.652344 156.246094 184.695312 155.085938 184.695312 L 146.855469 184.695312 L 146.855469 178.433594 L 156.335938 178.433594 C 157.46875 178.433594 158.425781 177.507812 158.425781 176.347656 C 158.425781 175.242188 157.5 174.316406 156.367188 174.316406 Z M 66.449219 174.558594 C 65.496094 173.601562 63.945312 173.601562 62.992188 174.558594 L 52.703125 184.875 C 51.238281 186.335938 51.238281 188.691406 52.703125 190.152344 L 63.019531 200.472656 C 63.976562 201.425781 65.527344 201.425781 66.480469 200.472656 C 67.433594 199.519531 67.433594 197.96875 66.480469 197.011719 L 56.964844 187.5 L 66.449219 178.015625 C 67.40625 177.0625 67.40625 175.511719 66.449219 174.558594 Z M 199.609375 184.875 L 189.292969 174.558594 C 188.335938 173.601562 186.785156 173.601562 185.832031 174.558594 C 184.878906 175.511719 184.878906 177.0625 185.832031 178.015625 L 195.347656 187.5 L 185.832031 197.011719 C 184.878906 197.96875 184.878906 199.519531 185.832031 200.472656 C 186.785156 201.425781 188.335938 201.425781 189.292969 200.472656 L 199.609375 190.152344 C 201.074219 188.691406 201.074219 186.335938 199.609375 184.875 Z M 179.957031 167.757812 C 178.703125 167.25 177.273438 167.847656 176.765625 169.070312 L 162.273438 204.050781 C 161.765625 205.304688 162.363281 206.734375 163.585938 207.242188 C 164.835938 207.75 166.269531 207.152344 166.777344 205.929688 L 181.269531 170.949219 C 181.804688 169.695312 181.210938 168.292969 179.957031 167.757812 Z M 179.957031 167.757812 " fill-opacity="1" fill-rule="nonzero"/></g><g clip-path="url(#a9b1a65fe0)"><path fill="#595959" d="M 213.921875 197.371094 C 214.339844 198.476562 213.742188 199.699219 212.609375 200.027344 C 210.429688 200.683594 207.957031 201.011719 205.210938 201.011719 C 201.691406 201.011719 198.832031 199.726562 196.683594 197.222656 C 194.566406 194.746094 193.492188 191.464844 193.492188 187.53125 C 193.492188 183.59375 194.535156 180.371094 196.59375 177.957031 C 198.890625 175.300781 202.109375 173.929688 206.195312 173.929688 C 208.402344 173.929688 210.492188 174.199219 212.429688 174.765625 C 213.621094 175.09375 214.21875 176.40625 213.773438 177.539062 C 213.382812 178.523438 212.308594 179.03125 211.296875 178.761719 C 209.746094 178.3125 208.074219 178.105469 206.285156 178.105469 C 203.273438 178.105469 201.125 179.179688 199.753906 181.386719 C 198.710938 183.027344 198.175781 185.144531 198.175781 187.648438 C 198.175781 189.945312 198.742188 192.003906 199.902344 193.703125 C 201.335938 195.851562 203.273438 196.894531 205.867188 196.894531 C 207.867188 196.894531 209.6875 196.625 211.296875 196.117188 C 212.339844 195.789062 213.472656 196.296875 213.859375 197.339844 Z M 237.152344 177.808594 C 239.539062 180.433594 240.730469 183.710938 240.730469 187.53125 C 240.730469 191.378906 239.507812 194.628906 237.152344 197.222656 C 234.765625 199.847656 231.636719 201.160156 227.847656 201.160156 C 224.0625 201.160156 220.929688 199.816406 218.542969 197.222656 C 216.15625 194.628906 214.964844 191.347656 214.964844 187.53125 C 214.964844 183.710938 216.15625 180.433594 218.542969 177.808594 C 220.929688 175.183594 224.089844 173.839844 227.847656 173.839844 C 231.605469 173.839844 234.765625 175.183594 237.152344 177.808594 Z M 236.167969 187.46875 C 236.167969 184.757812 235.394531 182.488281 233.84375 180.671875 C 232.320312 178.851562 230.351562 177.988281 227.816406 177.988281 C 225.3125 177.988281 223.34375 178.851562 221.792969 180.671875 C 220.242188 182.488281 219.46875 184.785156 219.46875 187.46875 C 219.46875 190.183594 220.242188 192.449219 221.792969 194.269531 C 223.316406 196.089844 225.285156 196.953125 227.816406 196.953125 C 230.324219 196.953125 232.292969 196.089844 233.84375 194.269531 C 235.394531 192.480469 236.167969 190.183594 236.167969 187.46875 Z M 260.890625 178.136719 C 262.652344 180.3125 263.578125 183.292969 263.578125 186.964844 C 263.578125 190.871094 262.621094 194.089844 260.714844 196.476562 C 258.355469 199.398438 254.6875 200.890625 249.859375 200.890625 C 248.785156 200.890625 247.234375 200.800781 245.175781 200.59375 C 243.804688 200.472656 242.730469 199.308594 242.730469 197.910156 L 242.730469 177.152344 C 242.730469 175.78125 243.773438 174.617188 245.144531 174.496094 C 247.890625 174.199219 249.769531 174.078125 250.902344 174.078125 C 255.316406 174.050781 258.683594 175.421875 260.890625 178.136719 Z M 258.863281 186.964844 C 258.863281 181.058594 256.179688 178.195312 250.691406 178.195312 C 249.828125 178.195312 248.484375 178.285156 246.726562 178.464844 L 246.726562 196.597656 C 247.769531 196.65625 248.992188 196.714844 250.425781 196.714844 C 253.617188 196.714844 255.851562 195.640625 257.285156 193.40625 C 258.355469 191.703125 258.863281 189.558594 258.863281 186.964844 Z M 279.054688 174.316406 L 267.664062 174.316406 C 266.140625 174.316406 264.917969 175.539062 264.917969 177.0625 L 264.917969 197.9375 C 264.917969 199.460938 266.140625 200.683594 267.664062 200.683594 L 279.054688 200.683594 C 280.1875 200.683594 281.140625 199.757812 281.140625 198.59375 C 281.140625 197.429688 280.21875 196.507812 279.054688 196.507812 L 269.570312 196.507812 L 269.570312 188.871094 L 277.773438 188.871094 C 278.90625 188.871094 279.859375 187.949219 279.859375 186.785156 C 279.859375 185.652344 278.933594 184.695312 277.773438 184.695312 L 269.542969 184.695312 L 269.542969 178.433594 L 279.023438 178.433594 C 280.15625 178.433594 281.113281 177.507812 281.113281 176.347656 C 281.113281 175.242188 280.1875 174.316406 279.054688 174.316406 Z M 189.136719 174.558594 C 188.183594 173.601562 186.632812 173.601562 185.679688 174.558594 L 175.390625 184.875 C 173.925781 186.335938 173.925781 188.691406 175.390625 190.152344 L 185.707031 200.472656 C 186.664062 201.425781 188.214844 201.425781 189.167969 200.472656 C 190.121094 199.519531 190.121094 197.96875 189.167969 197.011719 L 179.652344 187.5 L 189.136719 178.015625 C 190.09375 177.0625 190.09375 175.511719 189.136719 174.558594 Z M 322.296875 184.875 L 311.980469 174.558594 C 311.023438 173.601562 309.472656 173.601562 308.519531 174.558594 C 307.566406 175.511719 307.566406 177.0625 308.519531 178.015625 L 318.035156 187.5 L 308.519531 197.011719 C 307.566406 197.96875 307.566406 199.519531 308.519531 200.472656 C 309.472656 201.425781 311.023438 201.425781 311.980469 200.472656 L 322.296875 190.152344 C 323.757812 188.691406 323.757812 186.335938 322.296875 184.875 Z M 302.644531 167.757812 C 301.390625 167.25 299.960938 167.847656 299.453125 169.070312 L 284.960938 204.050781 C 284.453125 205.304688 285.050781 206.734375 286.273438 207.242188 C 287.523438 207.75 288.957031 207.152344 289.464844 205.929688 L 303.957031 170.949219 C 304.492188 169.695312 303.898438 168.292969 302.644531 167.757812 Z M 302.644531 167.757812 " fill-opacity="1" fill-rule="nonzero"/></g><path stroke-linecap="butt" transform="matrix(0.75, 0, 0, 0.75, 68.384429, 165.19288)" fill="none" stroke-linejoin="miter" d="M 21.367638 25.201162 L 15.935346 25.201162 L 15.935346 11.695953 C 15.935346 11.274078 15.674929 11.013661 15.247846 11.013661 L 10.872846 11.013661 C 10.362429 11.013661 10.159304 11.274078 10.159304 11.695953 L 10.159304 44.315747 C 10.159304 44.74283 10.362429 44.998039 10.872846 44.998039 L 15.247846 44.998039 C 15.674929 44.998039 15.935346 44.74283 15.935346 44.315747 L 15.935346 30.810538 L 21.367638 30.810538 L 21.367638 44.315747 C 21.367638 44.74283 21.628055 44.998039 22.055138 44.998039 L 26.430138 44.998039 C 26.935347 44.998039 27.14368 44.74283 27.14368 44.315747 L 27.14368 11.695953 C 27.14368 11.274078 26.935347 11.013661 26.430138 11.013661 L 22.055138 11.013661 C 21.628055 11.013661 21.367638 11.274078 21.367638 11.695953 Z M 51.862432 44.998039 C 52.372848 44.998039 52.549932 44.74283 52.456182 44.27408 L 45.404098 11.617828 C 45.320765 11.190745 45.070765 11.013661 44.685348 11.013661 L 38.784306 11.013661 C 38.404097 11.013661 38.143681 11.190745 38.060347 11.617828 L 31.008264 44.27408 C 30.883264 44.74283 31.091597 44.998039 31.555139 44.998039 L 36.102014 44.998039 C 36.482222 44.998039 36.700972 44.794914 36.784306 44.409497 L 37.935347 38.206371 L 45.497848 38.206371 L 46.68014 44.409497 C 46.77389 44.794914 46.977015 44.998039 47.362431 44.998039 Z M 44.43014 33.279288 L 38.992639 33.279288 L 41.711389 18.451162 Z M 56.279099 44.315747 C 56.279099 44.794914 56.487432 44.998039 56.950974 44.998039 L 67.148891 44.998039 C 71.138475 44.998039 73.268683 42.873038 73.268683 38.883455 L 73.268683 17.17512 C 73.268683 13.180328 71.138475 11.013661 67.148891 11.013661 L 56.950974 11.013661 C 56.487432 11.013661 56.279099 11.274078 56.279099 11.695953 Z M 62.055141 39.388663 L 62.055141 16.623037 L 65.966599 16.623037 C 67.065558 16.623037 67.664516 17.216787 67.664516 18.367828 L 67.664516 37.690746 C 67.664516 38.841788 67.065558 39.388663 65.966599 39.388663 Z M 78.18535 11.013661 C 77.721808 11.013661 77.513475 11.274078 77.513475 11.695953 L 77.513475 44.315747 C 77.513475 44.74283 77.721808 44.998039 78.18535 44.998039 L 82.607225 44.998039 C 83.0291 44.998039 83.289517 44.74283 83.289517 44.315747 L 83.289517 11.695953 C 83.289517 11.274078 83.0291 11.013661 82.607225 11.013661 Z M 108.008269 44.998039 C 108.518685 44.998039 108.69056 44.74283 108.59681 44.27408 L 101.544727 11.617828 C 101.461393 11.190745 101.216602 11.013661 100.831185 11.013661 L 94.930143 11.013661 C 94.544726 11.013661 94.289518 11.190745 94.206184 11.617828 L 87.154101 44.27408 C 87.029101 44.74283 87.232226 44.998039 87.700976 44.998039 L 92.242643 44.998039 C 92.628059 44.998039 92.846809 44.794914 92.930143 44.409497 L 94.081184 38.206371 L 101.638477 38.206371 L 102.820768 44.409497 C 102.914518 44.794914 103.122852 44.998039 103.508268 44.998039 Z M 100.570768 33.279288 L 95.138476 33.279288 L 97.857226 18.451162 Z M 129.159312 11.013661 C 125.206186 11.013661 123.03952 13.138661 123.03952 17.133453 L 123.03952 27.159496 C 123.03952 27.971996 123.424936 28.477204 124.180145 28.727204 L 134.253062 32.044913 L 134.253062 37.690746 C 134.253062 38.841788 133.659312 39.388663 132.549937 39.388663 L 130.518687 39.388663 C 129.450978 39.388663 128.815562 38.841788 128.815562 37.690746 L 128.815562 34.419913 C 128.815562 33.956371 128.596812 33.748038 128.13327 33.748038 L 123.711395 33.748038 C 123.28952 33.748038 123.03952 33.956371 123.03952 34.419913 L 123.03952 38.883455 C 123.03952 42.873038 125.206186 44.998039 129.159312 44.998039 L 133.909312 44.998039 C 137.898896 44.998039 140.029104 42.873038 140.029104 38.883455 L 140.029104 29.070954 C 140.029104 28.258454 139.643687 27.794912 138.930146 27.492829 L 128.815562 24.185537 L 128.815562 18.326162 C 128.815562 17.216787 129.450978 16.623037 130.518687 16.623037 L 132.549937 16.623037 C 133.700979 16.623037 134.253062 17.216787 134.253062 18.326162 L 134.253062 21.633454 C 134.253062 22.060537 134.50827 22.320954 134.935354 22.320954 L 139.352021 22.320954 C 139.820771 22.320954 140.029104 22.060537 140.029104 21.633454 L 140.029104 17.133453 C 140.029104 13.138661 137.898896 11.013661 133.909312 11.013661 Z M 155.487438 25.201162 L 150.049938 25.201162 L 150.049938 11.695953 C 150.049938 11.274078 149.789521 11.013661 149.367646 11.013661 L 144.987438 11.013661 C 144.482229 11.013661 144.273896 11.274078 144.273896 11.695953 L 144.273896 44.315747 C 144.273896 44.74283 144.482229 44.998039 144.987438 44.998039 L 149.367646 44.998039 C 149.789521 44.998039 150.049938 44.74283 150.049938 44.315747 L 150.049938 30.810538 L 155.487438 30.810538 L 155.487438 44.315747 C 155.487438 44.74283 155.742647 44.998039 156.16973 44.998039 L 160.54473 44.998039 C 161.055147 44.998039 161.263481 44.74283 161.263481 44.315747 L 161.263481 11.695953 C 161.263481 11.274078 161.055147 11.013661 160.54473 11.013661 L 156.16973 11.013661 C 155.742647 11.013661 155.487438 11.274078 155.487438 11.695953 Z M 185.982232 44.998039 C 186.487441 44.998039 186.664524 44.74283 186.570774 44.27408 L 179.51869 11.617828 C 179.435357 11.190745 179.185357 11.013661 178.805148 11.013661 L 172.904106 11.013661 C 172.51869 11.013661 172.258273 11.190745 172.17494 11.617828 L 165.122856 44.27408 C 164.997856 44.74283 165.206189 44.998039 165.674939 44.998039 L 170.216606 44.998039 C 170.602023 44.998039 170.815564 44.794914 170.898898 44.409497 L 172.04994 38.206371 L 179.61244 38.206371 L 180.794732 44.409497 C 180.888482 44.794914 181.096815 44.998039 181.477024 44.998039 Z M 178.544732 33.279288 L 173.11244 33.279288 L 175.825981 18.451162 Z M 207.383275 11.695953 C 207.383275 11.274078 207.133275 11.013661 206.706192 11.013661 L 191.070774 11.013661 C 190.602024 11.013661 190.393691 11.274078 190.393691 11.695953 L 190.393691 44.315747 C 190.393691 44.74283 190.602024 44.998039 191.070774 44.998039 L 195.487441 44.998039 C 195.914524 44.998039 196.169733 44.74283 196.169733 44.315747 L 196.169733 30.768871 L 204.159317 30.768871 C 204.581192 30.768871 204.831192 30.555329 204.831192 30.086579 L 204.831192 25.846996 C 204.831192 25.419912 204.581192 25.159496 204.159317 25.159496 L 196.169733 25.159496 L 196.169733 16.623037 L 206.706192 16.623037 C 207.133275 16.623037 207.383275 16.367828 207.383275 15.940745 Z M 212.305151 11.013661 C 211.8364 11.013661 211.628067 11.274078 211.628067 11.695953 L 211.628067 44.315747 C 211.628067 44.74283 211.8364 44.998039 212.305151 44.998039 L 216.721817 44.998039 C 217.148901 44.998039 217.404109 44.74283 217.404109 44.315747 L 217.404109 11.695953 C 217.404109 11.274078 217.148901 11.013661 216.721817 11.013661 Z M 238.638486 17.133453 C 238.638486 13.138661 236.513485 11.013661 232.518694 11.013661 L 227.768693 11.013661 C 223.77911 11.013661 221.654109 13.138661 221.654109 17.133453 L 221.654109 38.883455 C 221.654109 42.873038 223.77911 44.998039 227.768693 44.998039 L 230.40411 44.998039 L 231.846818 48.143872 C 232.013485 48.482414 232.148902 48.732414 232.56036 48.732414 L 236.982235 48.732414 C 237.456194 48.732414 237.789527 48.440747 237.581194 47.977205 L 235.883277 44.315747 C 237.706194 43.383455 238.638486 41.55533 238.638486 38.883455 Z M 227.430152 18.326162 C 227.430152 17.216787 228.018693 16.623037 229.128068 16.623037 L 231.336402 16.623037 C 232.43536 16.623037 233.039527 17.216787 233.039527 18.326162 L 233.039527 37.690746 C 233.039527 38.841788 232.43536 39.388663 231.336402 39.388663 L 229.128068 39.388663 C 228.018693 39.388663 227.430152 38.841788 227.430152 37.690746 Z M 255.112445 11.013661 C 254.648903 11.013661 254.273903 11.399078 254.273903 11.86262 L 254.273903 37.690746 C 254.273903 38.841788 253.669737 39.388663 252.570778 39.388663 L 250.362445 39.388663 C 249.25307 39.388663 248.664528 38.841788 248.664528 37.690746 L 248.664528 11.86262 C 248.664528 11.399078 248.279111 11.013661 247.810361 11.013661 L 243.737444 11.013661 C 243.268694 11.013661 242.888486 11.399078 242.888486 11.86262 L 242.888486 38.883455 C 242.888486 42.873038 245.013486 44.998039 249.00307 44.998039 L 253.75307 44.998039 C 257.747862 44.998039 259.872862 42.873038 259.872862 38.883455 L 259.872862 11.86262 C 259.872862 11.399078 259.492654 11.013661 259.023904 11.013661 Z M 281.065572 11.695953 C 281.065572 11.274078 280.898905 11.013661 280.393697 11.013661 L 264.753071 11.013661 C 264.367654 11.013661 264.122862 11.274078 264.122862 11.695953 L 264.122862 44.315747 C 264.122862 44.74283 264.367654 44.998039 264.753071 44.998039 L 280.393697 44.998039 C 280.898905 44.998039 281.065572 44.74283 281.065572 44.315747 L 281.065572 40.076163 C 281.065572 39.607413 280.898905 39.388663 280.393697 39.388663 L 269.773904 39.388663 L 269.773904 30.810538 L 277.88328 30.810538 C 278.310363 30.810538 278.555155 30.555329 278.555155 30.086579 L 278.555155 25.888662 C 278.555155 25.419912 278.310363 25.159496 277.88328 25.159496 L 269.773904 25.159496 L 269.773904 16.664703 L 280.393697 16.664703 C 280.898905 16.664703 281.065572 16.367828 281.065572 15.940745 Z M 281.065572 11.695953 " stroke="#000000" stroke-width="2.257265" stroke-opacity="1" stroke-miterlimit="4"/></svg>