<svg xmlns="http://www.w3.org/2000/svg" xmlns:xlink="http://www.w3.org/1999/xlink" width="500" zoomAndPan="magnify" viewBox="0 0 375 374.999991" height="500" preserveAspectRatio="xMidYMid meet" version="1.0"><defs><clipPath id="7bb99b7ecf"><path d="M 46.011719 214 L 64.761719 214 L 64.761719 254.484375 L 46.011719 254.484375 Z M 46.011719 214 " clip-rule="nonzero"/></clipPath><clipPath id="623dea1fdf"><path d="M 120.242188 214 L 161 214 L 161 254.484375 L 120.242188 254.484375 Z M 120.242188 214 " clip-rule="nonzero"/></clipPath></defs><g clip-path="url(#7bb99b7ecf)"><path fill="#595959" d="M 86.085938 244.105469 C 86.503906 245.210938 85.910156 246.433594 84.773438 246.761719 C 82.597656 247.417969 80.121094 247.746094 77.378906 247.746094 C 73.859375 247.746094 70.996094 246.464844 68.851562 243.957031 C 66.730469 241.484375 65.660156 238.203125 65.660156 234.265625 C 65.660156 230.328125 66.703125 227.109375 68.761719 224.691406 C 71.054688 222.039062 74.277344 220.667969 78.363281 220.667969 C 80.570312 220.667969 82.65625 220.933594 84.597656 221.5 C 85.789062 221.828125 86.386719 223.140625 85.9375 224.273438 C 85.550781 225.257812 84.476562 225.765625 83.464844 225.496094 C 81.914062 225.050781 80.242188 224.839844 78.453125 224.839844 C 75.441406 224.839844 73.292969 225.914062 71.921875 228.121094 C 70.878906 229.761719 70.339844 231.878906 70.339844 234.382812 C 70.339844 236.679688 70.90625 238.738281 72.070312 240.4375 C 73.503906 242.585938 75.441406 243.628906 78.035156 243.628906 C 80.035156 243.628906 81.851562 243.363281 83.464844 242.855469 C 84.507812 242.527344 85.640625 243.035156 86.027344 244.078125 Z M 109.320312 224.542969 C 111.707031 227.167969 112.898438 230.449219 112.898438 234.265625 C 112.898438 238.113281 111.675781 241.363281 109.320312 243.957031 C 106.933594 246.582031 103.800781 247.894531 100.015625 247.894531 C 96.226562 247.894531 93.097656 246.550781 90.710938 243.957031 C 88.324219 241.363281 87.132812 238.082031 87.132812 234.265625 C 87.132812 230.449219 88.324219 227.167969 90.710938 224.542969 C 93.097656 221.917969 96.257812 220.578125 100.015625 220.578125 C 103.773438 220.578125 106.933594 221.917969 109.320312 224.542969 Z M 108.335938 234.207031 C 108.335938 231.492188 107.558594 229.226562 106.007812 227.40625 C 104.488281 225.585938 102.519531 224.722656 99.984375 224.722656 C 97.480469 224.722656 95.511719 225.585938 93.960938 227.40625 C 92.410156 229.226562 91.632812 231.523438 91.632812 234.207031 C 91.632812 236.917969 92.410156 239.1875 93.960938 241.003906 C 95.480469 242.824219 97.449219 243.691406 99.984375 243.691406 C 102.492188 243.691406 104.457031 242.824219 106.007812 241.003906 C 107.558594 239.214844 108.335938 236.917969 108.335938 234.207031 Z M 133.058594 224.871094 C 134.820312 227.046875 135.742188 230.03125 135.742188 233.699219 C 135.742188 237.605469 134.789062 240.828125 132.878906 243.210938 C 130.523438 246.136719 126.855469 247.625 122.023438 247.625 C 120.949219 247.625 119.398438 247.535156 117.34375 247.328125 C 115.96875 247.207031 114.898438 246.046875 114.898438 244.644531 L 114.898438 223.886719 C 114.898438 222.515625 115.941406 221.351562 117.3125 221.234375 C 120.054688 220.933594 121.933594 220.816406 123.070312 220.816406 C 127.480469 220.785156 130.851562 222.15625 133.058594 224.871094 Z M 131.03125 233.699219 C 131.03125 227.792969 128.347656 224.929688 122.859375 224.929688 C 121.996094 224.929688 120.652344 225.019531 118.894531 225.199219 L 118.894531 243.332031 C 119.9375 243.390625 121.160156 243.449219 122.589844 243.449219 C 125.78125 243.449219 128.019531 242.378906 129.449219 240.140625 C 130.523438 238.441406 131.03125 236.292969 131.03125 233.699219 Z M 151.222656 221.054688 L 139.828125 221.054688 C 138.308594 221.054688 137.085938 222.277344 137.085938 223.796875 L 137.085938 244.671875 C 137.085938 246.195312 138.308594 247.417969 139.828125 247.417969 L 151.222656 247.417969 C 152.355469 247.417969 153.308594 246.492188 153.308594 245.328125 C 153.308594 244.167969 152.382812 243.242188 151.222656 243.242188 L 141.738281 243.242188 L 141.738281 235.609375 L 149.9375 235.609375 C 151.074219 235.609375 152.027344 234.683594 152.027344 233.519531 C 152.027344 232.386719 151.101562 231.433594 149.9375 231.433594 L 141.707031 231.433594 L 141.707031 225.167969 L 151.191406 225.167969 C 152.324219 225.167969 153.28125 224.246094 153.28125 223.082031 C 153.28125 221.976562 152.355469 221.054688 151.222656 221.054688 Z M 61.304688 221.292969 C 60.351562 220.339844 58.800781 220.339844 57.84375 221.292969 L 47.554688 231.609375 C 46.09375 233.074219 46.09375 235.429688 47.554688 236.890625 L 57.875 247.207031 C 58.828125 248.164062 60.378906 248.164062 61.335938 247.207031 C 62.289062 246.253906 62.289062 244.703125 61.335938 243.75 L 51.820312 234.234375 L 61.304688 224.75 C 62.257812 223.796875 62.257812 222.246094 61.304688 221.292969 Z M 194.464844 231.609375 L 184.144531 221.292969 C 183.191406 220.339844 181.640625 220.339844 180.6875 221.292969 C 179.734375 222.246094 179.734375 223.796875 180.6875 224.75 L 190.199219 234.234375 L 180.6875 243.75 C 179.734375 244.703125 179.734375 246.253906 180.6875 247.207031 C 181.640625 248.164062 183.191406 248.164062 184.144531 247.207031 L 194.464844 236.890625 C 195.925781 235.429688 195.925781 233.074219 194.464844 231.609375 Z M 174.8125 214.492188 C 173.558594 213.984375 172.128906 214.582031 171.621094 215.804688 L 157.125 250.789062 C 156.621094 252.039062 157.214844 253.472656 158.4375 253.980469 C 159.691406 254.484375 161.121094 253.890625 161.628906 252.667969 L 176.125 217.683594 C 176.660156 216.429688 176.0625 215.03125 174.8125 214.492188 Z M 174.8125 214.492188 " fill-opacity="1" fill-rule="nonzero"/></g><g clip-path="url(#623dea1fdf)"><path fill="#595959" d="M 51.503906 244.105469 C 51.921875 245.210938 51.324219 246.433594 50.191406 246.761719 C 48.015625 247.417969 45.539062 247.746094 42.796875 247.746094 C 39.277344 247.746094 36.414062 246.464844 34.265625 243.957031 C 32.148438 241.484375 31.074219 238.203125 31.074219 234.265625 C 31.074219 230.328125 32.121094 227.109375 34.175781 224.691406 C 36.472656 222.039062 39.695312 220.667969 43.78125 220.667969 C 45.988281 220.667969 48.074219 220.933594 50.011719 221.5 C 51.207031 221.828125 51.800781 223.140625 51.355469 224.273438 C 50.96875 225.257812 49.894531 225.765625 48.878906 225.496094 C 47.328125 225.050781 45.660156 224.839844 43.871094 224.839844 C 40.855469 224.839844 38.710938 225.914062 37.339844 228.121094 C 36.292969 229.761719 35.757812 231.878906 35.757812 234.382812 C 35.757812 236.679688 36.324219 238.738281 37.488281 240.4375 C 38.917969 242.585938 40.855469 243.628906 43.453125 243.628906 C 45.449219 243.628906 47.269531 243.363281 48.878906 242.855469 C 49.921875 242.527344 51.058594 243.035156 51.445312 244.078125 Z M 74.738281 224.542969 C 77.121094 227.167969 78.316406 230.449219 78.316406 234.265625 C 78.316406 238.113281 77.09375 241.363281 74.738281 243.957031 C 72.351562 246.582031 69.21875 247.894531 65.433594 247.894531 C 61.644531 247.894531 58.511719 246.550781 56.125 243.957031 C 53.742188 241.363281 52.546875 238.082031 52.546875 234.265625 C 52.546875 230.449219 53.742188 227.167969 56.125 224.542969 C 58.511719 221.917969 61.675781 220.578125 65.433594 220.578125 C 69.191406 220.578125 72.351562 221.917969 74.738281 224.542969 Z M 73.753906 234.207031 C 73.753906 231.492188 72.976562 229.226562 71.425781 227.40625 C 69.90625 225.585938 67.9375 224.722656 65.402344 224.722656 C 62.898438 224.722656 60.929688 225.585938 59.378906 227.40625 C 57.828125 229.226562 57.050781 231.523438 57.050781 234.207031 C 57.050781 236.917969 57.828125 239.1875 59.378906 241.003906 C 60.898438 242.824219 62.867188 243.691406 65.402344 243.691406 C 67.90625 243.691406 69.875 242.824219 71.425781 241.003906 C 72.976562 239.214844 73.753906 236.917969 73.753906 234.207031 Z M 98.476562 224.871094 C 100.234375 227.046875 101.160156 230.03125 101.160156 233.699219 C 101.160156 237.605469 100.207031 240.828125 98.296875 243.210938 C 95.941406 246.136719 92.273438 247.625 87.441406 247.625 C 86.367188 247.625 84.816406 247.535156 82.757812 247.328125 C 81.386719 247.207031 80.3125 246.046875 80.3125 244.644531 L 80.3125 223.886719 C 80.3125 222.515625 81.355469 221.351562 82.730469 221.234375 C 85.472656 220.933594 87.351562 220.816406 88.484375 220.816406 C 92.898438 220.785156 96.269531 222.15625 98.476562 224.871094 Z M 96.449219 233.699219 C 96.449219 227.792969 93.765625 224.929688 88.277344 224.929688 C 87.410156 224.929688 86.070312 225.019531 84.308594 225.199219 L 84.308594 243.332031 C 85.355469 243.390625 86.578125 243.449219 88.007812 243.449219 C 91.199219 243.449219 93.4375 242.378906 94.867188 240.140625 C 95.941406 238.441406 96.449219 236.292969 96.449219 233.699219 Z M 116.636719 221.054688 L 105.246094 221.054688 C 103.726562 221.054688 102.503906 222.277344 102.503906 223.796875 L 102.503906 244.671875 C 102.503906 246.195312 103.726562 247.417969 105.246094 247.417969 L 116.636719 247.417969 C 117.773438 247.417969 118.726562 246.492188 118.726562 245.328125 C 118.726562 244.167969 117.800781 243.242188 116.636719 243.242188 L 107.15625 243.242188 L 107.15625 235.609375 L 115.355469 235.609375 C 116.488281 235.609375 117.445312 234.683594 117.445312 233.519531 C 117.445312 232.386719 116.519531 231.433594 115.355469 231.433594 L 107.125 231.433594 L 107.125 225.167969 L 116.609375 225.167969 C 117.742188 225.167969 118.695312 224.246094 118.695312 223.082031 C 118.695312 221.976562 117.773438 221.054688 116.636719 221.054688 Z M 26.722656 221.292969 C 25.765625 220.339844 24.214844 220.339844 23.261719 221.292969 L 12.972656 231.609375 C 11.511719 233.074219 11.511719 235.429688 12.972656 236.890625 L 23.292969 247.207031 C 24.246094 248.164062 25.796875 248.164062 26.75 247.207031 C 27.707031 246.253906 27.707031 244.703125 26.75 243.75 L 17.238281 234.234375 L 26.722656 224.75 C 27.675781 223.796875 27.675781 222.246094 26.722656 221.292969 Z M 159.882812 231.609375 L 149.5625 221.292969 C 148.609375 220.339844 147.058594 220.339844 146.105469 221.292969 C 145.148438 222.246094 145.148438 223.796875 146.105469 224.75 L 155.617188 234.234375 L 146.105469 243.75 C 145.148438 244.703125 145.148438 246.253906 146.105469 247.207031 C 147.058594 248.164062 148.609375 248.164062 149.5625 247.207031 L 159.882812 236.890625 C 161.34375 235.429688 161.34375 233.074219 159.882812 231.609375 Z M 140.226562 214.492188 C 138.976562 213.984375 137.542969 214.582031 137.039062 215.804688 L 122.542969 250.789062 C 122.035156 252.039062 122.632812 253.472656 123.855469 253.980469 C 125.109375 254.484375 126.539062 253.890625 127.046875 252.667969 L 141.539062 217.683594 C 142.078125 216.429688 141.480469 215.03125 140.226562 214.492188 Z M 140.226562 214.492188 " fill-opacity="1" fill-rule="nonzero"/></g><path stroke-linecap="butt" transform="matrix(0.823046, 0, 0, 0.823046, -25.949018, 209.332193)" fill="none" stroke-linejoin="miter" d="M 126.008453 25.201542 L 120.57418 25.201542 L 120.57418 11.698916 C 120.57418 11.271767 120.313145 11.015479 119.890743 11.015479 L 115.514848 11.015479 C 115.007016 11.015479 114.798188 11.271767 114.798188 11.698916 L 114.798188 44.314048 C 114.798188 44.741196 115.007016 45.002231 115.514848 45.002231 L 119.890743 45.002231 C 120.313145 45.002231 120.57418 44.741196 120.57418 44.314048 L 120.57418 30.811421 L 126.008453 30.811421 L 126.008453 44.314048 C 126.008453 44.741196 126.269488 45.002231 126.69189 45.002231 L 131.072532 45.002231 C 131.580363 45.002231 131.784445 44.741196 131.784445 44.314048 L 131.784445 11.698916 C 131.784445 11.271767 131.580363 11.015479 131.072532 11.015479 L 126.69189 11.015479 C 126.269488 11.015479 126.008453 11.271767 126.008453 11.698916 Z M 126.008453 25.201542 " stroke="#000000" stroke-width="2.257265" stroke-opacity="1" stroke-miterlimit="4"/><path stroke-linecap="butt" transform="matrix(0.823046, 0, 0, 0.823046, -25.949018, 209.332193)" fill="none" stroke-linejoin="miter" d="M 144.057835 12.714579 L 147.161778 12.714579 L 147.161778 55.234802 L 144.057835 55.234802 Z M 144.057835 12.714579 " stroke="#000000" stroke-width="2.257265" stroke-opacity="1" stroke-miterlimit="4"/><path stroke-linecap="butt" transform="matrix(0.823046, 0, 0, 0.823046, -25.949018, 209.332193)" fill="none" stroke-linejoin="miter" d="M 165.552878 11.015479 C 161.599385 11.015479 159.430421 13.141727 159.430421 17.133189 L 159.430421 27.161678 C 159.430421 27.968513 159.814855 28.481091 160.574229 28.727888 L 170.645433 32.045405 L 170.645433 37.688506 C 170.645433 38.841806 170.052171 39.387606 168.941586 39.387606 L 166.91026 39.387606 C 165.842389 39.387606 165.211159 38.841806 165.211159 37.688506 L 165.211159 34.423196 C 165.211159 33.953333 164.992839 33.749251 164.522976 33.749251 L 160.109112 33.749251 C 159.681964 33.749251 159.430421 33.953333 159.430421 34.423196 L 159.430421 38.879775 C 159.430421 42.875983 161.599385 45.002231 165.552878 45.002231 L 170.303714 45.002231 C 174.295176 45.002231 176.421425 42.875983 176.421425 38.879775 L 176.421425 29.069606 C 176.421425 28.262771 176.036991 27.792908 175.320332 27.493904 L 165.211159 24.185879 L 165.211159 18.324458 C 165.211159 17.213872 165.842389 16.625357 166.91026 16.625357 L 168.941586 16.625357 C 170.094886 16.625357 170.645433 17.213872 170.645433 18.324458 L 170.645433 21.632483 C 170.645433 22.059631 170.901722 22.320666 171.32887 22.320666 L 175.74748 22.320666 C 176.212597 22.320666 176.421425 22.059631 176.421425 21.632483 L 176.421425 17.133189 C 176.421425 13.141727 174.295176 11.015479 170.303714 11.015479 Z M 165.552878 11.015479 " stroke="#000000" stroke-width="2.257265" stroke-opacity="1" stroke-miterlimit="4"/></svg>